<svg width="294.18125px" height="170.5843994140625px" xmlns="http://www.w3.org/2000/svg" viewBox="102.90937500000001 -10.292199707031244 294.18125 170.5843994140625" style="background: rgba(0, 0, 0, 0);" preserveAspectRatio="xMidYMid"><defs><filter id="editing-extrude-glow"><feFlood flood-color="#ffffff" result="flood-1"></feFlood><feMorphology operator="erode" radius="1" in="SourceAlpha" result="erode"></feMorphology><feComposite operator="in" in="flood-1" in2="erode" result="comp1"></feComposite><feConvolveMatrix order="3,3" divisor="1" in="comp1" result="convolve" kernelMatrix="0 0 0 1 1 1 0 0 0"></feConvolveMatrix><feOffset dx="-3" dy="0" in="convolve" result="extrude"></feOffset><feComposite operator="in" in="flood-1" in2="extrude" result="comp-extrude"></feComposite><feFlood flood-color="rgba(0%,0%,0%,0)" result="flood-2"></feFlood><feComposite operator="in" in="flood-2" in2="SourceAlpha" result="comp2"></feComposite><feMorphology operator="dilate" radius="1" in="comp2" result="dilate"></feMorphology><feOffset dx="-4.5" dy="0" in="dilate" result="offset"></feOffset><feGaussianBlur in="offset" stdDeviation="5.8" result="blur"></feGaussianBlur><feComponentTransfer in="blur" result="shadow"><feFuncA type="linear" slope="0.8" intercept="-0.2"></feFuncA></feComponentTransfer><feMerge><feMergeNode in="shadow"></feMergeNode><feMergeNode in="comp-extrude"></feMergeNode><feMergeNode in="SourceGraphic"></feMergeNode></feMerge></filter></defs><g filter="url(#editing-extrude-glow)"><g transform="translate(142.9000084400177, 119.15485572814941)"><path d="M65.39-14.05L65.39-14.05Q66.21-14.05 66.69-13.29L66.69-13.29L66.69-13.29Q67.16-12.54 67.16-11.21L67.16-11.21L67.16-11.21Q67.16-8.76 65.96-7.31L65.96-7.31L65.96-7.31Q62.94-3.65 59.85-1.67L59.85-1.67L59.85-1.67Q56.76 0.32 52.54 0.32L52.54 0.32L52.54 0.32Q47.88 0.32 44.92-2.43L44.92-2.43L44.92-2.43Q41.96-5.17 39.38-10.96L39.38-10.96L39.38-10.96Q37.48-15.12 36.26-17.17L36.26-17.17L36.26-17.17Q35.03-19.21 33.83-20.07L33.83-20.07L33.83-20.07Q32.63-20.92 30.81-21.11L30.81-21.11L30.11-16.44L30.11-16.44Q28.79-7.43 24.98-3.46L24.98-3.46L24.98-3.46Q21.17 0.50 14.49 0.50L14.49 0.50L14.49 0.50Q10.14 0.50 6.77-1.61L6.77-1.61L6.77-1.61Q3.40-3.72 2.08-6.99L2.08-6.99L2.08-6.99Q1.64-8.13 1.64-9.45L1.64-9.45L1.64-9.45Q1.64-11.34 2.52-12.73L2.52-12.73L2.52-12.73Q3.40-14.11 4.79-14.11L4.79-14.11L4.79-14.11Q5.61-14.11 6.17-13.70L6.17-13.70L6.17-13.70Q6.74-13.29 7.25-12.29L7.25-12.29L7.25-12.29Q9.20-8.63 10.68-7.18L10.68-7.18L10.68-7.18Q12.16-5.73 14.36-5.73L14.36-5.73L14.36-5.73Q16.88-5.73 18.68-8.03L18.68-8.03L18.68-8.03Q20.48-10.33 21.23-15.12L21.23-15.12L22.11-21.11L21.11-21.11L21.11-21.11Q19.66-21.11 18.84-21.92L18.84-21.92L18.84-21.92Q18.02-22.74 18.02-24.19L18.02-24.19L18.02-24.19Q18.02-25.83 18.87-26.81L18.87-26.81L18.87-26.81Q19.72-27.78 20.98-27.78L20.98-27.78L23.06-27.78L23.06-27.78Q23.50-30.87 23.69-32.07L23.69-32.07L25.64-46.24L25.64-46.24Q24.00-46.43 22.55-46.43L22.55-46.43L22.55-46.43Q17.20-46.43 14.43-44.57L14.43-44.57L14.43-44.57Q11.65-42.71 11.65-39.25L11.65-39.25L11.65-39.25Q11.65-37.67 12.00-36.70L12.00-36.70L12.00-36.70Q12.35-35.72 12.92-34.52L12.92-34.52L12.92-34.52Q13.17-34.02 13.17-33.39L13.17-33.39L13.17-33.39Q13.17-32.00 11.88-30.96L11.88-30.96L11.88-30.96Q10.58-29.93 9.01-29.93L9.01-29.93L9.01-29.93Q6.99-29.93 6.05-31.69L6.05-31.69L6.05-31.69Q4.16-35.03 4.16-38.87L4.16-38.87L4.16-38.87Q4.16-42.84 6.33-46.12L6.33-46.12L6.33-46.12Q8.51-49.39 12.92-51.38L12.92-51.38L12.92-51.38Q17.32-53.36 23.81-53.36L23.81-53.36L23.81-53.36Q26.65-53.36 29.01-53.05L29.01-53.05L29.01-53.05Q31.37-52.73 34.21-51.85L34.21-51.85L34.21-51.85Q37.30-50.90 37.30-48.32L37.30-48.32L37.30-48.32Q37.30-44.86 34.34-44.86L34.34-44.86L31.88-27.91L31.88-27.91Q39.25-28.66 43.88-34.24L43.88-34.24L43.88-34.24Q48.51-39.82 51.60-49.39L51.60-49.39L51.60-49.39Q52.16-51.16 53.52-52.10L53.52-52.10L53.52-52.10Q54.87-53.05 56.95-53.05L56.95-53.05L56.95-53.05Q58.72-53.05 59.69-52.26L59.69-52.26L59.69-52.26Q60.67-51.47 60.67-50.02L60.67-50.02L60.67-50.02Q60.67-49.58 60.42-48.57L60.42-48.57L60.42-48.57Q57.27-38.18 51.41-32.07L51.41-32.07L51.41-32.07Q45.55-25.96 38.62-23.94L38.62-23.94L38.62-23.94Q41.01-23.37 42.56-22.24L42.56-22.24L42.56-22.24Q44.10-21.11 45.17-19.44L45.17-19.44L45.17-19.44Q46.24-17.77 47.63-14.80L47.63-14.80L47.63-14.80Q49.58-10.65 51.28-8.91L51.28-8.91L51.28-8.91Q52.98-7.18 55.25-7.18L55.25-7.18L55.25-7.18Q57.27-7.18 59.09-8.54L59.09-8.54L59.09-8.54Q60.92-9.89 63.69-13.17L63.69-13.17L63.69-13.17Q64.45-14.05 65.39-14.05L65.39-14.05ZM94.31-13.92L94.31-13.92Q95.13-13.92 95.60-13.14L95.60-13.14L95.60-13.14Q96.07-12.35 96.07-11.15L96.07-11.15L96.07-11.15Q96.07-9.70 95.63-8.88L95.63-8.88L95.63-8.88Q95.19-8.06 94.25-7.43L94.25-7.43L82.15 0.69L82.15 0.69Q79.76 13.73 75.88 21.20L75.88 21.20L75.88 21.20Q72.01 28.66 66.02 28.66L66.02 28.66L66.02 28.66Q62.81 28.66 60.80 26.68L60.80 26.68L60.80 26.68Q58.78 24.70 58.78 21.48L58.78 21.48L58.78 21.48Q58.78 18.52 60.13 15.44L60.13 15.44L60.13 15.44Q61.49 12.35 65.17 8.35L65.17 8.35L65.17 8.35Q68.86 4.35 75.60-0.82L75.60-0.82L75.79-2.27L75.79-2.27Q76.23-4.60 76.80-8.95L76.80-8.95L76.80-8.95Q75.54-4.41 73.27-2.05L73.27-2.05L73.27-2.05Q71.00 0.32 68.48 0.32L68.48 0.32L68.48 0.32Q65.65 0.32 63.85-2.30L63.85-2.30L63.85-2.30Q62.05-4.91 62.05-8.82L62.05-8.82L62.05-8.82Q62.05-13.54 62.69-17.48L62.69-17.48L62.69-17.48Q63.31-21.42 64.76-25.83L64.76-25.83L64.76-25.83Q65.39-27.72 66.53-28.54L66.53-28.54L66.53-28.54Q67.66-29.36 70.12-29.36L70.12-29.36L70.12-29.36Q71.50-29.36 72.04-28.92L72.04-28.92L72.04-28.92Q72.58-28.48 72.58-27.59L72.58-27.59L72.58-27.59Q72.58-27.09 71.88-24.19L71.88-24.19L71.88-24.19Q71.25-21.86 70.88-19.97L70.88-19.97L70.88-19.97Q70.37-17.39 69.99-15.03L69.99-15.03L69.99-15.03Q69.61-12.66 69.61-11.15L69.61-11.15L69.61-11.15Q69.61-8.76 70.94-8.76L70.94-8.76L70.94-8.76Q71.88-8.76 73.30-10.65L73.30-10.65L73.30-10.65Q74.72-12.54 76.32-16.38L76.32-16.38L76.32-16.38Q77.93-20.22 79.44-25.83L79.44-25.83L79.44-25.83Q79.95-27.72 80.99-28.54L80.99-28.54L80.99-28.54Q82.03-29.36 84.11-29.36L84.11-29.36L84.11-29.36Q85.55-29.36 86.12-28.98L86.12-28.98L86.12-28.98Q86.69-28.60 86.69-27.72L86.69-27.72L86.69-27.72Q86.69-26.14 85.05-16.88L85.05-16.88L83.41-6.74L83.41-6.74Q88.26-10.39 92.86-13.42L92.86-13.42L92.86-13.42Q93.68-13.92 94.31-13.92L94.31-13.92ZM66.72 22.55L66.72 22.55Q68.29 22.55 70.25 18.90L70.25 18.90L70.25 18.90Q72.20 15.25 74.15 6.74L74.15 6.74L74.15 6.74Q69.30 10.84 67.13 14.21L67.13 14.21L67.13 14.21Q64.95 17.58 64.95 20.10L64.95 20.10L64.95 20.10Q64.95 21.17 65.36 21.86L65.36 21.86L65.36 21.86Q65.77 22.55 66.72 22.55L66.72 22.55ZM103.95 1.70L103.95 1.70Q100.67 1.70 98.94 0.19L98.94 0.19L98.94 0.19Q97.21-1.32 97.21-3.21L97.21-3.21L97.21-3.21Q97.21-4.85 98.41-6.05L98.41-6.05L98.41-6.05Q99.60-7.25 101.93-7.25L101.93-7.25L101.93-7.25Q102.75-7.25 103.86-7.09L103.86-7.09L103.86-7.09Q104.96-6.93 105.53-6.87L105.53-6.87L105.53-6.87Q105.46-8.51 104.80-9.95L104.80-9.95L104.80-9.95Q104.14-11.40 103.13-12.76L103.13-12.76L103.13-12.76Q102.12-14.11 101.24-15.12L101.24-15.12L101.24-15.12Q99.29-11.40 97.37-8.95L97.37-8.95L97.37-8.95Q95.44-6.49 93.18-4.28L93.18-4.28L93.18-4.28Q92.04-3.15 90.78-3.15L90.78-3.15L90.78-3.15Q89.77-3.15 89.14-3.87L89.14-3.87L89.14-3.87Q88.52-4.60 88.52-5.67L88.52-5.67L88.52-5.67Q88.52-6.93 89.40-8.00L89.40-8.00L90.22-9.01L90.22-9.01Q93.68-13.29 95.44-16.07L95.44-16.07L95.44-16.07Q96.52-17.89 97.97-20.95L97.97-20.95L97.97-20.95Q99.41-24.00 100.80-27.28L100.80-27.28L100.80-27.28Q102.00-30.05 105.78-30.05L105.78-30.05L105.78-30.05Q107.54-30.05 108.23-29.74L108.23-29.74L108.23-29.74Q108.93-29.42 108.93-28.73L108.93-28.73L108.93-28.73Q108.93-28.35 108.67-27.53L108.67-27.53L108.67-27.53Q108.42-26.71 107.98-25.89L107.98-25.89L107.98-25.89Q106.85-23.63 106.85-22.05L106.85-22.05L106.85-22.05Q106.85-21.11 107.51-19.97L107.51-19.97L107.51-19.97Q108.17-18.84 109.56-17.14L109.56-17.14L109.56-17.14Q111.57-14.49 112.61-12.63L112.61-12.63L112.61-12.63Q113.65-10.77 113.65-8.57L113.65-8.57L113.65-8.57Q113.65-7.94 113.53-6.80L113.53-6.80L113.53-6.80Q116.61-8.00 120.77-13.17L120.77-13.17L120.77-13.17Q121.53-14.05 122.47-14.05L122.47-14.05L122.47-14.05Q123.29-14.05 123.76-13.29L123.76-13.29L123.76-13.29Q124.24-12.54 124.24-11.21L124.24-11.21L124.24-11.21Q124.24-8.82 123.04-7.31L123.04-7.31L123.04-7.31Q119.89-3.40 117.02-1.98L117.02-1.98L117.02-1.98Q114.16-0.57 109.94-0.44L109.94-0.44L109.94-0.44Q107.41 1.70 103.95 1.70L103.95 1.70ZM152.65-19.34L152.65-19.34Q153.47-19.34 153.91-18.52L153.91-18.52L153.91-18.52Q154.35-17.70 154.35-16.44L154.35-16.44L154.35-16.44Q154.35-14.87 153.91-14.02L153.91-14.02L153.91-14.02Q153.47-13.17 152.52-12.85L152.52-12.85L152.52-12.85Q148.74-11.53 144.21-11.34L144.21-11.34L144.21-11.34Q142.95-6.11 139.45-2.90L139.45-2.90L139.45-2.90Q135.95 0.32 131.73 0.32L131.73 0.32L131.73 0.32Q125.37 0.32 122.47-4.54L122.47-4.54L122.47-4.54Q119.57-9.39 119.57-18.59L119.57-18.59L119.57-18.59Q119.57-26.71 121.59-36.26L121.59-36.26L121.59-36.26Q123.61-45.80 127.48-52.51L127.48-52.51L127.48-52.51Q131.35-59.22 136.71-59.22L136.71-59.22L136.71-59.22Q139.61-59.22 141.37-56.73L141.37-56.73L141.37-56.73Q143.14-54.24 143.14-50.27L143.14-50.27L143.14-50.27Q143.14-45.11 141.18-40.01L141.18-40.01L141.18-40.01Q139.23-34.90 134.69-29.30L134.69-29.30L134.69-29.30Q138.91-28.98 141.56-25.80L141.56-25.80L141.56-25.80Q144.21-22.62 144.71-17.96L144.71-17.96L144.71-17.96Q147.67-18.14 151.77-19.21L151.77-19.21L151.77-19.21Q152.14-19.34 152.65-19.34L152.65-19.34ZM135.26-52.98L135.26-52.98Q134.00-52.98 132.52-49.23L132.52-49.23L132.52-49.23Q131.04-45.49 129.78-39.06L129.78-39.06L129.78-39.06Q128.52-32.63 127.89-25.01L127.89-25.01L127.89-25.01Q132.05-32.63 134.54-38.46L134.54-38.46L134.54-38.46Q137.03-44.29 137.03-48.83L137.03-48.83L137.03-48.83Q137.03-50.84 136.55-51.91L136.55-51.91L136.55-51.91Q136.08-52.98 135.26-52.98L135.26-52.98ZM131.98-6.36L131.98-6.36Q133.94-6.36 135.45-8.00L135.45-8.00L135.45-8.00Q136.96-9.64 137.47-12.73L137.47-12.73L137.47-12.73Q135.51-14.05 134.47-16.19L134.47-16.19L134.47-16.19Q133.43-18.33 133.43-20.73L133.43-20.73L133.43-20.73Q133.43-21.61 133.69-23.12L133.69-23.12L133.50-23.12L133.50-23.12Q130.91-23.12 129.18-20.57L129.18-20.57L129.18-20.57Q127.45-18.02 127.45-13.73L127.45-13.73L127.45-13.73Q127.45-10.14 128.80-8.25L128.80-8.25L128.80-8.25Q130.16-6.36 131.98-6.36L131.98-6.36ZM156.68 0.32L156.68 0.32Q152.77 0.32 150.44-2.52L150.44-2.52L150.44-2.52Q148.11-5.36 148.11-9.95L148.11-9.95L148.11-9.95Q148.11-14.99 150.44-19.50L150.44-19.50L150.44-19.50Q152.77-24.00 156.65-26.74L156.65-26.74L156.65-26.74Q160.52-29.48 164.87-29.48L164.87-29.48L164.87-29.48Q166.26-29.48 166.73-28.95L166.73-28.95L166.73-28.95Q167.20-28.41 167.52-27.03L167.52-27.03L167.52-27.03Q168.84-27.28 170.29-27.28L170.29-27.28L170.29-27.28Q173.38-27.28 173.38-25.07L173.38-25.07L173.38-25.07Q173.38-23.75 172.43-18.77L172.43-18.77L172.43-18.77Q170.98-11.53 170.98-8.69L170.98-8.69L170.98-8.69Q170.98-7.75 171.45-7.18L171.45-7.18L171.45-7.18Q171.93-6.62 172.68-6.62L172.68-6.62L172.68-6.62Q173.88-6.62 175.58-8.16L175.58-8.16L175.58-8.16Q177.28-9.70 180.18-13.17L180.18-13.17L180.18-13.17Q180.94-14.05 181.88-14.05L181.88-14.05L181.88-14.05Q182.70-14.05 183.17-13.29L183.17-13.29L183.17-13.29Q183.64-12.54 183.64-11.21L183.64-11.21L183.64-11.21Q183.64-8.69 182.45-7.31L182.45-7.31L182.45-7.31Q179.86-4.09 176.97-1.89L176.97-1.89L176.97-1.89Q174.07 0.32 171.36 0.32L171.36 0.32L171.36 0.32Q169.28 0.32 167.55-1.10L167.55-1.10L167.55-1.10Q165.82-2.52 164.93-4.98L164.93-4.98L164.93-4.98Q161.66 0.32 156.68 0.32L156.68 0.32ZM158.95-6.05L158.95-6.05Q160.33-6.05 161.59-7.69L161.59-7.69L161.59-7.69Q162.85-9.32 163.42-12.03L163.42-12.03L165.75-23.63L165.75-23.63Q163.11-23.56 160.87-21.64L160.87-21.64L160.87-21.64Q158.63-19.72 157.31-16.57L157.31-16.57L157.31-16.57Q155.99-13.42 155.99-9.89L155.99-9.89L155.99-9.89Q155.99-7.94 156.78-6.99L156.78-6.99L156.78-6.99Q157.56-6.05 158.95-6.05L158.95-6.05ZM210.80-13.92L210.80-13.92Q211.62-13.92 212.09-13.14L212.09-13.14L212.09-13.14Q212.56-12.35 212.56-11.15L212.56-11.15L212.56-11.15Q212.56-9.70 212.12-8.88L212.12-8.88L212.12-8.88Q211.68-8.06 210.73-7.43L210.73-7.43L198.64 0.69L198.64 0.69Q196.24 13.73 192.37 21.20L192.37 21.20L192.37 21.20Q188.50 28.66 182.51 28.66L182.51 28.66L182.51 28.66Q179.30 28.66 177.28 26.68L177.28 26.68L177.28 26.68Q175.27 24.70 175.27 21.48L175.27 21.48L175.27 21.48Q175.27 18.52 176.62 15.44L176.62 15.44L176.62 15.44Q177.97 12.35 181.66 8.35L181.66 8.35L181.66 8.35Q185.35 4.35 192.09-0.82L192.09-0.82L192.28-2.27L192.28-2.27Q192.72-4.60 193.28-8.95L193.28-8.95L193.28-8.95Q192.02-4.41 189.76-2.05L189.76-2.05L189.76-2.05Q187.49 0.32 184.97 0.32L184.97 0.32L184.97 0.32Q182.13 0.32 180.34-2.30L180.34-2.30L180.34-2.30Q178.54-4.91 178.54-8.82L178.54-8.82L178.54-8.82Q178.54-13.54 179.17-17.48L179.17-17.48L179.17-17.48Q179.80-21.42 181.25-25.83L181.25-25.83L181.25-25.83Q181.88-27.72 183.01-28.54L183.01-28.54L183.01-28.54Q184.15-29.36 186.61-29.36L186.61-29.36L186.61-29.36Q187.99-29.36 188.53-28.92L188.53-28.92L188.53-28.92Q189.06-28.48 189.06-27.59L189.06-27.59L189.06-27.59Q189.06-27.09 188.37-24.19L188.37-24.19L188.37-24.19Q187.74-21.86 187.36-19.97L187.36-19.97L187.36-19.97Q186.86-17.39 186.48-15.03L186.48-15.03L186.48-15.03Q186.10-12.66 186.10-11.15L186.10-11.15L186.10-11.15Q186.10-8.76 187.42-8.76L187.42-8.76L187.42-8.76Q188.37-8.76 189.79-10.65L189.79-10.65L189.79-10.65Q191.20-12.54 192.81-16.38L192.81-16.38L192.81-16.38Q194.42-20.22 195.93-25.83L195.93-25.83L195.93-25.83Q196.43-27.72 197.47-28.54L197.47-28.54L197.47-28.54Q198.51-29.36 200.59-29.36L200.59-29.36L200.59-29.36Q202.04-29.36 202.61-28.98L202.61-28.98L202.61-28.98Q203.17-28.60 203.17-27.72L203.17-27.72L203.17-27.72Q203.17-26.14 201.54-16.88L201.54-16.88L199.90-6.74L199.90-6.74Q204.75-10.39 209.35-13.42L209.35-13.42L209.35-13.42Q210.17-13.92 210.80-13.92L210.80-13.92ZM183.20 22.55L183.20 22.55Q184.78 22.55 186.73 18.90L186.73 18.90L186.73 18.90Q188.68 15.25 190.64 6.74L190.64 6.74L190.64 6.74Q185.79 10.84 183.61 14.21L183.61 14.21L183.61 14.21Q181.44 17.58 181.44 20.10L181.44 20.10L181.44 20.10Q181.44 21.17 181.85 21.86L181.85 21.86L181.85 21.86Q182.26 22.55 183.20 22.55L183.20 22.55Z" fill="#ffffff"></path></g></g><style>text {
  font-size: 64px;
  font-family: Arial Black;
  dominant-baseline: central;
  text-anchor: middle;
}</style></svg>