<svg width="842.16979" height="568.85227" xmlns="http://www.w3.org/2000/svg" data-name="Layer 1">

 <g>
  <title>Layer 1</title>
  <path id="svg_1" fill="#f1f1f1" d="m538.16981,568.85227l0,-72.34s28.19164,51.28597 0,72.34z"/>
  <path id="svg_2" fill="#f1f1f1" d="m539.91125,568.83955l-53.28962,-48.92125s56.84518,13.91557 53.28962,48.92125z"/>
  <rect fill="#e5e5e5" height="399.45384" width="841.81084" y="23.0788" x="0.35895" data-name="Rectangle 62" id="f54375ad-557d-4249-95e2-413e25c77bd8"/>
  <rect fill="#fff" height="333.27683" width="793.66829" y="57.33267" x="24.43081" data-name="Rectangle 75" id="eb84611c-d49d-4ce2-b538-4fee0a7e188d"/>
  <rect fill="#61e1c2" height="35.76263" width="841.81084" data-name="Rectangle 80" id="a33b5263-04c3-449f-a8ad-1420252c1e48"/>
  <circle fill="#fff" r="6.62847" cy="17.81511" cx="26.57607" data-name="Ellipse 90" id="a01a8c4b-bf8b-4728-9381-d6cbaed15ee5"/>
  <circle fill="#fff" r="6.62847" cy="17.81511" cx="51.73556" data-name="Ellipse 91" id="a70f271b-ee75-4447-9507-72af025f0784"/>
  <circle fill="#fff" r="6.62847" cy="17.81511" cx="76.89622" data-name="Ellipse 92" id="b6ae4294-4107-4abd-ba05-1d458fcbc8d7"/>
  <path fill="#3f3d56" d="m154.46029,133.20309a3.268,3.268 0 0 0 0,6.536l89.293,0a3.268,3.268 0 1 0 0,-6.536l-89.293,0z" data-name="Path 680" id="a98f5d70-28fc-4129-b4f3-463d07786f2f-340"/>
  <path fill="#ccc" d="m103.96029,178.20309a3.268,3.268 0 0 0 0,6.536l190.293,0a3.268,3.268 0 1 0 0,-6.536l-190.293,0z" data-name="Path 680" id="a5717240-4d8d-4c71-83bc-6deeb889f166-341"/>
  <path fill="#ccc" d="m103.96029,204.20309a3.268,3.268 0 0 0 0,6.536l190.293,0a3.268,3.268 0 1 0 0,-6.536l-190.293,0z" data-name="Path 680" id="f9c6f13d-6e3a-4758-9844-a0f5d5c969ce-342"/>
  <path fill="#ccc" d="m103.96029,230.20309a3.268,3.268 0 0 0 0,6.536l190.293,0a3.268,3.268 0 1 0 0,-6.536l-190.293,0z" data-name="Path 680" id="bf808dfd-2bb2-4793-b7c6-d8671bf7e9b4-343"/>
  <path fill="#ccc" d="m103.96029,256.20309a3.268,3.268 0 0 0 0,6.536l190.293,0a3.268,3.268 0 1 0 0,-6.536l-190.293,0z" data-name="Path 680" id="e27373f7-fd0b-426a-8828-0829b084b689-344"/>
  <path fill="#ccc" d="m103.96029,282.20309a3.268,3.268 0 0 0 0,6.536l190.293,0a3.268,3.268 0 1 0 0,-6.536l-190.293,0z" data-name="Path 680" id="b4c6c7b3-e22e-4fba-a4f6-80d19d07dbd3-345"/>
  <path fill="#ccc" d="m103.96029,308.20309a3.268,3.268 0 0 0 0,6.536l190.293,0a3.268,3.268 0 1 0 0,-6.536l-190.293,0z" data-name="Path 680" id="ebf0dc46-a6ad-47cb-a3de-ddb71e9e94e3-346"/>
  <path id="svg_3" fill="#f1f1f1" d="m731.70935,316.13817l-288.10275,0a7.271,7.271 0 0 1 -7.2631,-7.26309l0,-169.47221a7.271,7.271 0 0 1 7.2631,-7.26309l288.10275,0a7.271,7.271 0 0 1 7.2631,7.26309l0,169.47221a7.271,7.271 0 0 1 -7.2631,7.26309z"/>
  <path id="svg_4" fill="#fff" d="m769.60953,354.9001l-288.10272,0a7.271,7.271 0 0 1 -7.26309,-7.2631l0,-169.47221a7.271,7.271 0 0 1 7.26309,-7.26309l288.10272,0a7.271,7.271 0 0 1 7.26309,7.26309l0,169.47221a7.271,7.271 0 0 1 -7.26309,7.2631z"/>
  <path id="svg_5" fill="#3f3d56" d="m769.60931,357.37171l-288.1025,0a9.74579,9.74579 0 0 1 -9.73465,-9.73485l0,-169.47169a9.7458,9.7458 0 0 1 9.73465,-9.73486l288.1025,0a9.74585,9.74585 0 0 1 9.73486,9.73486l0,169.4717a9.74584,9.74584 0 0 1 -9.73486,9.73484zm-288.1025,-183.99834a4.79721,4.79721 0 0 0 -4.7916,4.7918l0,169.4717a4.79721,4.79721 0 0 0 4.7916,4.7918l288.1025,0a4.79738,4.79738 0 0 0 4.7918,-4.7918l0,-169.4717a4.79738,4.79738 0 0 0 -4.7918,-4.7918l-288.1025,0z"/>
  <circle id="svg_6" fill="#ff6583" r="25" cy="285.43031" cx="625.16979"/>
  <path id="svg_7" fill="#61e1c2" d="m673.39781,261.37887a16.09868,16.09868 0 0 0 -23.02463,-0.41135l-81.07973,81.08013c-10.386,10.43459 -21.22811,-5.52482 -28.15628,-11.9606c-16.66045,-16.47735 -34.65555,14.419 -45.85423,23.26678l260.55047,0l0,-3.3168l-82.4356,-88.65816z"/>
  <path id="svg_8" fill="#9f616a" d="m352.22944,359.66057l-4.38425,-60.75355l7.8739,-56.93181l-22.3624,-1.50994l-4.41411,62.88884l12.47523,59.13968a8.79767,8.79767 0 1 0 10.81159,-2.83322l0.00004,0z"/>
  <path id="svg_9" fill="#4f8cff" d="m330.50358,248.64766l5.251,-22.72576a17.49724,17.49724 0 0 1 34.43542,5.897l-2.8917,25.67924l-36.79472,-8.85048z"/>
  <polygon id="svg_10" fill="#9f616a" points="371.903 557.597 382.445 557.597 387.46 516.933 371.901 516.934 371.903 557.597"/>
  <path id="svg_11" fill="#2f2e41" d="m369.21336,554.15531l20.7617,-0.00084l0.00084,0a13.23168,13.23168 0 0 1 13.231,13.23076l0,0.43l-33.99289,0.00126l-0.00065,-13.66118z"/>
  <polygon id="svg_12" fill="#9f616a" points="424.424 557.252 434.559 554.349 428.184 513.876 413.226 518.161 424.424 557.252"/>
  <path id="svg_13" fill="#2f2e41" d="m420.89116,554.68354l19.95893,-5.71742l0.00081,-0.00024a13.2317,13.2317 0 0 1 16.36256,9.07627l0.11839,0.41333l-32.67857,9.361l-3.76212,-13.13294z"/>
  <path id="svg_14" fill="#2f2e41" d="m366.20453,542.83809l4.90409,-123.1785l-12.73593,-55.74418c-17.13859,-28.7351 1.35092,-74.57013 1.53985,-75.02995l0.06876,-0.16759l0.17972,-0.02456l44.832,-6.074l0.62973,1.44515a214.69124,214.69124 0 0 1 13.94748,127.51609l-4.66605,23.86585l23.06132,93.11029l-21.82566,10.91291l-16.74555,-43.4245l-11.31912,44.42877l-21.87064,2.36422z"/>
  <path id="svg_15" fill="#4f8cff" d="m354.00781,300.31007l-14.62586,-42.85509c-9.09235,-16.01207 -3.3251,-30.22752 3.11438,-39.33307c6.95394,-9.83243 7.3714,-15.34659 7.46364,-15.40768l0.07444,-0.04911l19.21593,-0.58229l17.78443,18.07143c1.1187,-0.4371 10.568,22.84952 9.767,24.02026l12.421,40.152l-55.21496,15.98355z"/>
  <path id="svg_16" fill="#9f616a" d="m472.43442,307.72156l-48.17993,-37.26808l-37.15468,-43.84927l-16.04461,15.65016l43.90035,45.2465l52.376,30.1644a8.79767,8.79767 0 1 0 5.1029,-9.94375l-0.00003,0.00004z"/>
  <path id="svg_17" fill="#4f8cff" d="m366.49553,258.11031l-13.42486,-19.07371a17.49724,17.49724 0 0 1 27.36746,-21.71625l17.199,19.28682l-31.1416,21.50314z"/>
  <circle id="svg_18" fill="#9f616a" r="22.81899" cy="174.00948" cx="357.38226"/>
  <path id="svg_19" fill="#2f2e41" d="m380.58466,162.43302l-36.23385,0l0,-15.79424c7.95292,-3.15955 15.73526,-5.84657 20.4396,0a15.79433,15.79433 0 0 1 15.79424,15.79423l0.00001,0.00001z"/>
  <path id="svg_20" fill="#2f2e41" d="m349.34481,142.85156c-33.19817,-0.90658 -26.9117,53.78567 -26.9117,53.78567s6.26341,0.82834 9.12141,1.315l3.45152,-1.94369l3.71386,2.43573c1.70527,0.00851 3.49673,-0.0245 5.354,-0.059l1.70255,-3.50569l3.79659,3.4428c6.91068,0.01028 25.66641,0.20072 25.66641,0.20072s11.30274,-54.65574 -25.89464,-55.67154z"/>
  <path id="svg_21" fill="#cbcbcb" d="m618.1816,568.43031l-381,0a1,1 0 0 1 0,-2l381,0a1,1 0 0 1 0,2z"/>
 </g>
</svg>